<?xml version="1.0" encoding="UTF-8"?>
<svg id="name_x5F_round_x5F_logo_x5F_192px" xmlns="http://www.w3.org/2000/svg" width="192" height="192" version="1.1" viewBox="0 0 192 192">
  <!-- Generator: Adobe Illustrator 29.3.0, SVG Export Plug-In . SVG Version: 2.1.0 Build 146)  -->
  <rect id="bounding_box" width="192" height="192" fill="none"/>
  <g id="BG_circle">
    <circle cx="96" cy="96" r="88" fill="#fff"/>
  </g>
  <g id="BG_x5F_edge">
    <path d="M183.99,96c-.22,38.38-25.27,70.9-59.99,82.48-8.8,2.93-18.21,4.52-28,4.52-48.43,0-87.73-38.91-88-87.01v.5c0,48.33,39.4,87.5,88,87.5,9.79,0,19.2-1.59,28-4.52,34.87-11.63,60-44.39,60-82.98,0-.17-.01-.33-.01-.5Z" isolation="isolate" opacity=".1"/>
    <path d="M184,96c0-38.81-25.13-71.75-60-83.45-8.8-2.95-18.21-4.55-28-4.55C47.4,8,8,47.4,8,96" fill="#fff" isolation="isolate" opacity=".4"/>
  </g>
  <g id="art_layer">
    <path id="icon" d="M138.33,122.45l-26.38-40.39c-1.58-2.37-2.46-5.07-2.46-7.77v-16.39h2.11c1.76,0,3.17-1.35,3.17-3.04,0-1.52-1.41-2.87-3.17-2.87h-31.31c-1.76,0-2.99,1.35-2.99,2.87,0,1.69,1.23,3.04,2.99,3.04h2.11v16.39c0,2.7-.88,5.41-2.29,7.77l-26.56,40.39c-4.57,7.77,1.23,17.58,10.73,17.58h63.5c9.32,0,15.3-9.8,10.55-17.58ZM82.05,114.33c-5.28,1.52-15.65-.17-12.31-5.24l15.48-23.83c2.11-3.38,3.34-7.1,3.34-10.98v-16.39h14.95v16.39c0,3.89,1.06,7.6,3.17,10.98l8.97,13.86c1.58,2.37-.88,3.55-2.81,3.72-14.07,1.01-19.17,8.28-30.78,11.49Z"/>
  </g>
</svg>