<svg width="174" height="25" viewBox="0 0 174 25" fill="none" xmlns="http://www.w3.org/2000/svg">
<g id="_&#229;&#155;&#190;&#229;&#177;&#130;_1" clipPath="url(#clip0_994_161)">
<g id="Group">
<path id="Vector" d="M21.9943 13.1874C23.3337 13.1874 23.9884 14.8017 23.0667 15.7582L14.3167 24.5503C13.7223 25.1476 12.7684 25.1476 12.174 24.5503L0.445829 12.7091C-0.14861 12.1118 -0.14861 11.1533 0.445829 10.556L10.2983 0.65811C11.1016 -0.149058 12.4411 -0.149058 13.2443 0.65811C14.0476 1.46528 14.0476 2.81123 13.2443 3.6184L6.34002 10.5863C5.74558 11.1836 5.74558 12.1421 6.34002 12.7394L12.2021 18.6297C12.7965 19.227 13.7504 19.227 14.3449 18.6297L15.118 17.8528C15.4153 17.5541 15.5639 17.195 15.5639 16.7752V15.2497C15.5639 15.0398 15.5639 14.832 15.594 14.6221C15.6542 13.8149 16.3089 13.2156 17.1122 13.2156H21.9922V13.1854L21.9943 13.1874Z" fill="#00E7E7"/>
<path id="Vector_2" d="M38.6305 14.4443L28.7499 24.3725C27.9466 25.1797 26.6072 25.1797 25.8039 24.3725C25.0006 23.5653 25.0006 22.2194 25.8039 21.4122L32.7383 14.4443C33.3328 13.847 33.3328 12.8885 32.7383 12.2912L26.8461 6.4009C26.2517 5.8036 25.2978 5.8036 24.7033 6.4009L23.9302 7.1778C23.6631 7.44619 23.4843 7.83564 23.4843 8.25537V9.78092C23.4843 9.99078 23.4843 10.1986 23.4542 10.4085C23.394 11.2157 22.7393 11.815 21.936 11.815H17.056C15.7165 11.815 15.0618 10.2006 15.9836 9.24415L22.6188 2.57089L23.4823 1.67292L24.7033 0.446025C25.2978 -0.151279 26.2517 -0.151279 26.8461 0.446025L38.6024 12.2589C39.1968 12.8865 39.1968 13.843 38.6325 14.4423L38.6305 14.4443Z" fill="#00BFFF"/>
</g>
<g id="Group_2">
<path id="Vector_3" d="M55.2808 21.9444C52.5897 21.9444 50.2963 21.0424 48.4628 19.2646C46.6293 17.4848 45.6995 15.2086 45.6995 12.5005C45.6995 9.79246 46.6293 7.51826 48.4628 5.73644C50.2943 3.95865 52.5616 3.05664 55.2025 3.05664C58.8314 3.05664 61.5646 4.61044 63.3278 7.67364L63.4222 7.83911L61.1408 9.33641L61.0324 9.15883C59.6748 6.91894 57.7308 5.78285 55.2527 5.78285C53.3589 5.78285 51.7583 6.42253 50.4971 7.68171C49.234 8.94089 48.5953 10.5633 48.5953 12.4985C48.5953 14.4337 49.24 16.0561 50.5092 17.3153C51.7804 18.5765 53.385 19.2161 55.2788 19.2161C57.771 19.2161 59.715 18.0639 61.0565 15.7897L61.1649 15.6061L63.4483 17.1357L63.3499 17.3011C62.4884 18.75 61.3637 19.8982 60.0062 20.7134C58.6466 21.5287 57.0561 21.9423 55.2788 21.9423L55.2808 21.9444Z" fill="white"/>
<path id="Vector_4" d="M71.4612 21.8917C69.4409 21.8917 67.7359 21.2036 66.3944 19.8476C65.0549 18.4935 64.3741 16.8025 64.3741 14.8229C64.3741 12.8434 65.059 11.1846 66.4085 9.83667C67.758 8.4887 69.457 7.80664 71.4612 7.80664C73.4655 7.80664 75.1604 8.49072 76.4999 9.83667C77.8414 11.1846 78.5202 12.8615 78.5202 14.8229C78.5202 16.7844 77.8414 18.4915 76.4999 19.8476C75.1584 21.2036 73.4634 21.8917 71.4592 21.8917H71.4612ZM71.4612 10.2988C70.2061 10.2988 69.1457 10.7346 68.3043 11.5963C67.4628 12.4579 67.0371 13.5517 67.0371 14.8492C67.0371 16.1467 67.4548 17.2364 68.2802 18.09C69.1015 18.9415 70.1559 19.3734 71.409 19.3734C72.6622 19.3734 73.7305 18.9375 74.58 18.0758C75.4295 17.2142 75.8593 16.1285 75.8593 14.8492C75.8593 13.5698 75.4375 12.4579 74.6041 11.5963C73.7727 10.7367 72.7144 10.3008 71.4612 10.3008V10.2988Z" fill="white"/>
<path id="Vector_5" d="M86.3885 21.84C84.5047 21.84 82.87 21.1579 81.5305 19.81C80.189 18.464 79.5103 16.7952 79.5103 14.8499C79.5103 12.9047 80.189 11.2338 81.5305 9.87777C82.872 8.52173 84.5068 7.83362 86.3885 7.83362C88.0854 7.83362 89.5434 8.33608 90.7263 9.32688L90.891 9.4641V3.34375H93.578V21.6301H90.891V20.1772L90.7243 20.3225C89.5796 21.3274 88.1196 21.838 86.3885 21.838V21.84ZM86.519 10.3782C85.2819 10.3782 84.2336 10.8141 83.4022 11.6737C82.5688 12.5354 82.1471 13.6029 82.1471 14.8479C82.1471 16.093 82.5688 17.1625 83.4022 18.0221C84.2336 18.8817 85.2819 19.3196 86.519 19.3196C87.7561 19.3196 88.8405 18.8878 89.69 18.0342C90.5395 17.1806 90.9693 16.1091 90.9693 14.8479C90.9693 13.5867 90.5395 12.5354 89.69 11.6737C88.8405 10.8121 87.7742 10.3762 86.519 10.3762V10.3782Z" fill="white"/>
<path id="Vector_6" d="M119.167 21.9444C116.508 21.9444 114.251 21.0464 112.453 19.2767C110.654 17.5049 109.742 15.2247 109.742 12.5005C109.742 9.77631 110.668 7.47387 112.494 5.7102C114.317 3.94856 116.588 3.05664 119.245 3.05664C122.238 3.05664 124.641 4.12614 126.389 6.23688L126.511 6.38419L124.447 8.277L124.312 8.11153C123.059 6.56782 121.372 5.78285 119.298 5.78285C117.386 5.78285 115.781 6.4084 114.528 7.64337C113.275 8.87834 112.64 10.5108 112.64 12.4985C112.64 14.4861 113.277 16.1045 114.53 17.3556C115.785 18.6067 117.372 19.2424 119.247 19.2424C120.766 19.2424 122.077 18.7682 123.143 17.8298C124.121 16.9702 124.722 15.8724 124.929 14.5669L124.947 14.4498H119.384V11.7478H128.074V12.7588C128.074 15.3397 127.246 17.5392 125.615 19.2928C123.981 21.0504 121.812 21.9423 119.169 21.9423L119.167 21.9444Z" fill="white"/>
<path id="Vector_7" d="M136.143 21.8917C134.086 21.8917 132.385 21.2117 131.088 19.8718C129.79 18.5339 129.134 16.8348 129.134 14.8229C129.134 12.8111 129.801 11.1846 131.114 9.83869C132.429 8.49072 134.12 7.80664 136.143 7.80664C138.165 7.80664 139.856 8.45843 141.119 9.74586C142.382 11.0333 143.021 12.6436 143.021 14.5344C143.021 14.9803 142.993 15.3456 142.938 15.618L142.906 15.7794H131.849L131.869 15.8985C132.046 16.9054 132.49 17.7348 133.182 18.3664C133.954 19.0686 134.968 19.4238 136.191 19.4238C138.048 19.4238 139.47 18.6812 140.414 17.2182L140.521 17.0548L142.629 18.3321L142.521 18.5056C141.119 20.7516 138.972 21.8897 136.141 21.8897L136.143 21.8917ZM136.143 10.1959C135.018 10.1959 134.066 10.5187 133.309 11.1544C132.64 11.7174 132.182 12.4741 131.949 13.4003L131.917 13.5254H140.217L140.191 13.4023C139.986 12.4579 139.547 11.6972 138.884 11.1402C138.137 10.5127 137.213 10.1959 136.141 10.1959H136.143Z" fill="white"/>
<path id="Vector_8" d="M151.098 21.8917C149.042 21.8917 147.341 21.2117 146.043 19.8718C144.746 18.5339 144.089 16.8348 144.089 14.8229C144.089 12.8111 144.756 11.1846 146.069 9.83869C147.385 8.49072 149.076 7.80664 151.098 7.80664C153.12 7.80664 154.811 8.45843 156.074 9.74586C157.338 11.0313 157.976 12.6436 157.976 14.5344C157.976 14.9803 157.948 15.3456 157.894 15.618L157.862 15.7794H146.804L146.824 15.8985C147.003 16.9054 147.445 17.7348 148.14 18.3664C148.911 19.0686 149.925 19.4238 151.148 19.4238C153.006 19.4238 154.428 18.6812 155.372 17.2182L155.478 17.0548L157.587 18.3321L157.478 18.5056C156.076 20.7516 153.93 21.8897 151.098 21.8897V21.8917ZM151.098 10.1959C149.975 10.1959 149.021 10.5187 148.264 11.1544C147.596 11.7174 147.138 12.4741 146.905 13.4003L146.873 13.5254H155.173L155.147 13.4023C154.942 12.4579 154.502 11.6972 153.839 11.1402C153.092 10.5127 152.168 10.1959 151.096 10.1959H151.098Z" fill="white"/>
<path id="Vector_9" d="M170.469 21.6301L165.768 14.6602L161.043 21.6301H157.643L164.069 12.3174L157.904 3.34375H161.406L165.82 9.94638L170.234 3.34375H173.608L167.519 12.2387L174 21.6301H170.469Z" fill="white"/>
<path id="Vector_10" d="M101.788 21.8917C99.7311 21.8917 98.0301 21.2117 96.7328 19.8718C95.4355 18.5339 94.7788 16.8348 94.7788 14.8229C94.7788 12.8111 95.4455 11.1846 96.7589 9.83869C98.0743 8.49072 99.7653 7.80664 101.788 7.80664C103.81 7.80664 105.501 8.45843 106.764 9.74586C108.027 11.0333 108.666 12.6436 108.666 14.5344C108.666 14.9803 108.638 15.3456 108.583 15.618L108.551 15.7794H97.4939L97.514 15.8985C97.6908 16.9054 98.1346 17.7348 98.8274 18.3664C99.5986 19.0686 100.613 19.4238 101.836 19.4238C103.693 19.4238 105.115 18.6812 106.059 17.2182L106.166 17.0548L108.274 18.3321L108.166 18.5056C106.764 20.7516 104.617 21.8897 101.786 21.8897L101.788 21.8917ZM101.788 10.1959C100.663 10.1959 99.711 10.5187 98.9539 11.1544C98.2852 11.7174 97.8273 12.4741 97.5944 13.4003L97.5622 13.5254H105.862L105.836 13.4023C105.631 12.4579 105.192 11.6972 104.529 11.1402C103.782 10.5127 102.858 10.1959 101.786 10.1959H101.788Z" fill="white"/>
</g>
</g>
<defs>
<clipPath id="clip0_994_161">
<rect width="174" height="25" fill="white"/>
</clipPath>
</defs>
</svg>
