<?xml version="1.0" encoding="utf-8"?>
<!-- Generator: Adobe Illustrator 25.2.1, SVG Export Plug-In . SVG Version: 6.00 Build 0)  -->
<svg version="1.1" id="图层_1" xmlns="http://www.w3.org/2000/svg" xmlns:xlink="http://www.w3.org/1999/xlink" x="0px" y="0px"
	 viewBox="0 0 800 800" style="enable-background:new 0 0 800 800;" xml:space="preserve">
<style type="text/css">
	.st0{fill:#FFFFFF;}
</style>
<g>
	<rect x="0" width="800" height="800"/>
</g>
<g>
	<path class="st0" d="M258.1,464.6h-28.8v64.6h-57.7v-64.6H63.2v-42.7l90-151.1h76.1v146.9h28.8V464.6z M171.6,417.7v-37.9
		c0-16.3,1.7-41,2.4-57.3h-1.4c-6.6,14.6-13.5,29.5-20.8,44.1l-29.5,51.1H171.6z"/>
	<path class="st0" d="M309.2,398.6c0-88.9,36.8-132.7,91.4-132.7c54.5,0,91.7,44.5,91.7,132.7c0,88.9-37.2,135.5-91.7,135.5
		C346,534.1,309.2,487.5,309.2,398.6z M433.9,398.6c0-70.5-14.9-85.1-33.4-85.1s-33,14.6-33,85.1c0,70.9,14.6,87.5,33,87.5
		S433.9,469.5,433.9,398.6z"/>
	<path class="st0" d="M736.8,464.6H708v64.6h-57.7v-64.6H541.9v-42.7l90-151.1H708v146.9h28.8V464.6z M650.3,417.7v-37.9
		c0-16.3,1.7-41,2.4-57.3h-1.4c-6.6,14.6-13.5,29.5-20.8,44.1L601,417.7H650.3z"/>
</g>
</svg>
