<svg data-name="Layer 2" xmlns="http://www.w3.org/2000/svg" viewBox="0 0 56 54"><g data-name="DC/EC Logo Surface"><rect width="56" height="54" rx="9.91" ry="9.91" fill="#eb1000" data-name="Outline no shadow"/></g><g data-name="Outlined Mnemonics &amp;amp; Logos"><path d="M21.57 37.57c0 .22-.1.32-.32.32h-4.57c-.18 0-.25-.13-.25-.32V13.94c0-.21.07-.29.28-.29h14.65c.25 0 .31.07.35.31l.41 3.99c.04.22-.07.32-.31.32H21.57v5.62h9.23c.21 0 .31.07.31.29v4.04c0 .22-.11.29-.29.29h-9.25v9.06zm13.29-17.76c0-.21.1-.31.31-.31h4.55c.24 0 .31.06.31.3v17.74c0 .24-.07.34-.34.34h-4.46c-.25 0-.37-.11-.37-.35V19.8zm3.7-4.31l2.26.51c.89.2 1.51-.86.89-1.53l-1.57-1.7a.899.899 0 01-.22-.83l.51-2.26c.2-.89-.87-1.5-1.54-.88l-1.7 1.57c-.22.21-.54.29-.83.22l-2.26-.51c-.89-.2-1.51.86-.89 1.53l1.57 1.7c.21.22.29.53.22.83l-.51 2.26c-.2.89.87 1.5 1.54.88l1.7-1.57c.22-.21.54-.29.83-.22z" fill="#fff" data-name="Firefly Mnemonic One Sparkle"/></g></svg>