<?xml version="1.0" encoding="utf-8"?>
<svg xmlns="http://www.w3.org/2000/svg" fill="none" height="28" viewBox="0 0 28 28" width="28">
<g clip-path="url(#clip0_363_927)">
<path d="M14 28C21.732 28 28 21.732 28 14C28 6.26801 21.732 0 14 0C6.26801 0 0 6.26801 0 14C0 21.732 6.26801 28 14 28Z" fill="black" style="fill:black;fill-opacity:1;"/>
<path clip-rule="evenodd" d="M14.9802 13.496C14.7749 13.2122 14.6289 13.0022 14.487 12.7818C14.1069 12.2123 13.9954 11.5923 14.1079 10.9012L14.1162 10.8569C14.1566 10.6644 14.2188 10.4778 14.3017 10.2976C14.3801 10.128 14.4759 9.96659 14.5869 9.81586C14.7295 9.62219 14.8967 9.44654 15.0943 9.28432C15.7554 8.75941 16.5378 8.59291 17.4135 8.69503C17.999 8.7633 18.4886 8.91056 19.3333 9.22411L18.7457 11.0069C17.3486 10.4883 16.6584 10.4064 16.1665 10.7919C16.0986 10.8485 16.0388 10.9118 15.9894 10.9788C15.9532 11.0279 15.9232 11.0786 15.9004 11.1278C15.8816 11.1686 15.8674 11.2089 15.8578 11.2484C15.828 11.4498 15.8503 11.5576 15.9526 11.7101C16.0734 11.8981 16.203 12.0845 16.3922 12.346C16.3726 12.319 16.6597 12.714 16.7387 12.8247C17.079 13.3009 17.3066 13.6604 17.4996 14.0554C17.7494 14.5668 17.9071 15.0854 17.9669 15.6556C17.988 15.8808 17.9918 16.1059 17.9777 16.3301C17.9478 16.8004 17.8389 17.2616 17.6489 17.7068C17.5621 17.9103 17.4571 18.1044 17.3356 18.2874C16.9891 18.8093 16.5143 19.2326 15.9584 19.5299C15.7451 19.644 15.5212 19.7387 15.266 19.8203C13.5637 20.3118 11.6639 19.7756 10.4787 18.4415L11.7738 17.1459C12.4984 17.9616 13.7118 18.3063 14.7865 18.0013C14.9156 17.9591 15.04 17.9061 15.1576 17.8433C15.459 17.682 15.7072 17.4607 15.8806 17.1996C15.9382 17.1128 15.9873 17.0221 16.0275 16.9278C16.1295 16.6886 16.1863 16.4484 16.2019 16.2035C16.2092 16.0869 16.2073 15.9684 16.1964 15.8479C16.1331 15.2572 15.8931 14.7671 15.3205 13.9659C15.2466 13.8624 14.9647 13.4745 14.9802 13.496ZM13.0822 9.63675V14.2835H14.171V16.1722H11.3023V9.63675H13.0822ZM9.2015 15.0965C9.86509 15.0965 10.4029 14.5256 10.4029 13.8214C10.4029 13.1173 9.86509 12.5466 9.2015 12.5466C8.53781 12.5466 8 13.1173 8 13.8214C8 14.5256 8.53781 15.0965 9.2015 15.0965Z" fill="white" fill-rule="evenodd" style="fill:white;fill-opacity:1;"/>
</g>
<defs>
<clipPath id="clip0_363_927">
<rect fill="white" height="28" style="fill:white;fill-opacity:1;" width="28"/>
</clipPath>
</defs>
</svg>