<?xml version="1.0" standalone="no"?>
<!DOCTYPE svg PUBLIC "-//W3C//DTD SVG 20010904//EN"
 "http://www.w3.org/TR/2001/REC-SVG-20010904/DTD/svg10.dtd">
<svg version="1.0" xmlns="http://www.w3.org/2000/svg"
 width="2400.000000pt" height="2400.000000pt" viewBox="0 0 2400.000000 2400.000000"
 preserveAspectRatio="xMidYMid meet">

<g transform="translate(0.000000,2400.000000) scale(0.100000,-0.100000)"
fill="#8B7BF2" stroke="none">
<path d="M20565 18614 c-996 -982 -1885 -1860 -1976 -1951 l-166 -165 -103
149 c-966 1389 -2301 2451 -3860 3068 -1313 519 -2758 701 -4165 524 -1537
-193 -2995 -816 -4198 -1792 -316 -256 -737 -657 -989 -942 -727 -824 -1257
-1710 -1632 -2727 -523 -1422 -650 -3010 -361 -4495 l38 -192 -115 -123 c-180
-193 -366 -405 -559 -636 -1349 -1617 -1770 -2761 -1283 -3494 105 -158 286
-315 445 -387 301 -136 684 -152 1094 -46 644 167 1393 639 2200 1388 72 66
2237 2208 4813 4760 l4683 4639 -301 308 c-165 169 -306 312 -313 318 -9 8
-1130 -1098 -4437 -4374 -2433 -2411 -4428 -4384 -4432 -4384 -18 0 -249 413
-375 669 -388 796 -606 1589 -693 2521 -18 186 -24 842 -11 1062 115 1879 883
3589 2206 4914 1175 1176 2687 1918 4335 2128 514 66 1164 73 1695 21 2035
-203 3879 -1208 5171 -2820 153 -190 430 -582 480 -676 13 -27 12 -28 -868
-895 -3249 -3202 -6716 -6634 -6864 -6795 -287 -311 -469 -530 -649 -779 -372
-518 -598 -1051 -656 -1550 -19 -165 -7 -466 25 -616 152 -722 733 -1309 1516
-1535 612 -175 1539 -181 2528 -13 1427 241 2784 852 3907 1759 425 343 892
807 1246 1240 492 600 939 1353 1237 2085 666 1636 793 3448 361 5175 -136
543 -368 1175 -604 1646 -25 49 -45 92 -45 97 0 4 925 921 2055 2037 l2055
2028 -267 271 c-147 149 -287 292 -313 319 l-45 47 -1810 -1786z m-2292 -3711
c581 -1334 761 -2787 522 -4219 -365 -2187 -1698 -4088 -3655 -5214 -881 -507
-1902 -840 -2920 -954 -316 -36 -415 -41 -790 -41 -408 0 -553 11 -772 55
-578 118 -985 490 -1048 958 -56 411 146 949 564 1502 199 264 442 536 795
892 346 348 7235 7148 7242 7148 4 0 31 -57 62 -127z m-14778 -5938 c186 -480
417 -939 698 -1388 97 -156 99 -159 80 -179 -10 -11 -80 -75 -157 -142 -747
-653 -1431 -1026 -1885 -1026 -173 0 -241 25 -293 111 -98 157 -37 464 178
899 179 360 421 729 787 1198 160 206 537 655 544 648 1 -1 23 -55 48 -121z"/>
</g>
</svg>
