<svg width="28" height="28" xmlns="http://www.w3.org/2000/svg"><g fill="none" fill-rule="evenodd"><path d="M0 0h28v28H0z"/><g fill="#8266F9"><path d="M8.968 7.558C5.022 8.165 2 11.593 2 15.73 2 20.298 5.681 24 10.222 24c1.351 0 2.336-.195 3.049-.513 1.736-.775 3.26-1.553 5.173-1.553 2.33 0 4.552.984 5.49 1.772.219.184.5.294.807.294.695 0 1.259-.567 1.259-1.266 0-4.182-2.879-7.687-6.752-8.621-1.44.07-2.183.131-2.228.184-.067.08-.126.188-.092.247.004.006.516.428.522.434.087.102.605.228 1.556.379a7.594 7.594 0 0 1 5.735 7.377c0 .052-.206-.152-.354-.253a10.486 10.486 0 0 0-5.943-1.813c-2.03 0-3.779.68-5.54 1.551-.939.465-2.345.515-2.682.515-3.845 0-6.963-3.136-6.963-7.003 0-3.548 2.624-6.48 6.026-6.94l-.121-1.233h-.196z"/><path d="M9.374 4c.151 0 .29.075.414.145.853.483 3.012 1.745 4.289 3.01l-.626 1.131.074.062c-1.05-.87-2.869-2.32-3.403-2.449-.237-.057-.055.3 0 .658.149.975.313 2.39.313 3.372 0 1.506-.286 3.44-.81 4.756l2.759-4.483c-2.943 5.256-4.488 7.79-4.637 7.599-.176-.225-.176-.578 0-1.061.88-2.2 1.364-4.602 1.364-7.118 0-1.637-.341-3.116-.591-4.744C8.428 4.28 8.772 4 9.374 4z"/><path d="M16.111 4.035a.85.85 0 0 1 .708.38c.974 1.46 3.033 4.372 3.033 9.23 0 .532-.009 1.19-.06 1.709-.012.108-.386.095-.602.047a1.92 1.92 0 0 0-.362-.047c-3.752 0-8.045 1.968-10.23 2.825-.445.175-.983-.27-.983-.744 0-.193.152-.4.26-.543 1.511-2.017 6.124-9.219 7.384-12 .193-.425.382-.857.852-.857zm.154 1.732c-.101.017-1.373 2.62-2.923 5.138-1.223 1.987-3.717 5.42-3.717 5.56 0 .177.034.073.36-.054 1.598-.627 4.712-2.106 7.751-2.19.133-.003.737-.049.814-.072.038-.379 0-.768 0-1.157 0-2.846-1.433-5.813-2.122-6.976-.042-.07-.09-.265-.163-.249z"/><path d="M14.835 13.505a1.183 1.183 0 0 0-1.543-.659c-.607.247-.9.941-.655 1.552l2.198-.893z"/><path d="M21.196 15.123a.443.443 0 0 0-.61-.148l-2.364 1.45a.449.449 0 0 0-.082.698l1.133 1.134-1.49.925a.449.449 0 0 0-.101.676l.012.014 1.849 1.94c.17.179.451.185.628.014a.449.449 0 0 0 .014-.632l-1.468-1.542 1.502-.932a.449.449 0 0 0 .093-.684l-.012-.013-1.131-1.132 1.879-1.153a.449.449 0 0 0 .157-.599l-.009-.016z" fill-rule="nonzero"/></g></g></svg>