<svg width="76" height="36" viewBox="0 0 76 36" fill="none" xmlns="http://www.w3.org/2000/svg">
<g id="Logo">
<path id="Union" fill-rule="evenodd" clip-rule="evenodd" d="M33.6982 27.9994C39.2419 27.9994 43.7359 23.5224 43.7359 17.9997C43.7359 12.477 39.2419 8 33.6982 8C28.1545 8 23.6604 12.477 23.6604 17.9997C23.6604 23.5224 28.1545 27.9994 33.6982 27.9994ZM68.8247 8C68.0358 8 67.3962 8.63957 67.3962 9.42853V26.5709C67.3962 27.3598 68.0358 27.9994 68.8247 27.9994H74.5714C75.3604 27.9994 76 27.3598 76 26.5709V9.42853C76 8.63957 75.3604 8 74.5714 8H68.8247ZM63.6257 10.2588C64.3036 9.31335 63.6252 8 62.4588 8H48.0378C47.2458 8 46.6038 8.63957 46.6038 9.42853V26.5709C46.6038 27.3598 47.2458 27.9994 48.0378 27.9994H62.4588C63.6252 27.9994 64.3036 26.6861 63.6257 25.7406L58.6708 18.83C58.3147 18.3333 58.3147 17.6661 58.6708 17.1694L63.6257 10.2588ZM0 9.53444C0 8.33833 1.38735 7.67185 2.32684 8.41663L9.50335 14.1057C10.026 14.52 10.7665 14.52 11.2891 14.1057L18.4656 8.41663C19.4051 7.67186 20.7925 8.33833 20.7925 9.53444L20.7925 26.5715C20.7925 27.3604 20.1504 28 19.3585 28H1.43396C0.642008 28 0 27.3604 0 26.5715V9.53444Z" fill="url(#paint0_linear_3449_1065)"/>
</g>
<defs>
<linearGradient id="paint0_linear_3449_1065" x1="23.0558" y1="-3.3266" x2="52.6134" y2="39.2527" gradientUnits="userSpaceOnUse">
<stop offset="0.15" stop-color="#A9FF80"/>
<stop offset="0.352717" stop-color="#E8FFA8"/>
<stop offset="0.548671" stop-color="#FFEEFB"/>
<stop offset="0.850408" stop-color="#CBA2FF"/>
</linearGradient>
</defs>
</svg>
