<svg width="132.305542" height="40.000000" viewBox="0 0 132.306 40" fill="none" xmlns="http://www.w3.org/2000/svg" xmlns:xlink="http://www.w3.org/1999/xlink">
	<desc>
			Created with Pixso.
	</desc>
	<defs>
		<linearGradient x1="34.532303" y1="2.381594" x2="2.516069" y2="40.000000" id="paint_linear_831_3756_0" gradientUnits="userSpaceOnUse">
			<stop stop-color="#FF8400"/>
			<stop offset="1.000000" stop-color="#FF0055"/>
		</linearGradient>
	</defs>
	<rect id="属性 1=96,颜色=on" width="132.083313" height="40.000000" transform="translate(0.222229 0.000000)" fill="#FFFFFF" fill-opacity="0"/>
	<rect id="尺寸=1024" width="39.999996" height="40.000000" fill="#FFFFFF" fill-opacity="0"/>
	<rect id="矩形 3173" rx="10.113208" width="39.999996" height="40.000000" fill="url(#paint_linear_831_3756_0)" fill-opacity="1.000000"/>
	<rect id="logo_全色" width="36.698238" height="9.742896" transform="translate(1.623840 15.047852)" fill="#FFFFFF" fill-opacity="0"/>
	<path id="PPT" d="M3.8 16.16L8.56 16.16L9.56 17.32L9.19 19.96L7.85 21.13L4.57 21.13L4.21 23.69L2.74 23.69L3.8 16.16ZM10.48 16.16L15.24 16.16L16.25 17.32L15.87 19.96L14.54 21.13L11.26 21.13L10.9 23.69L9.42 23.69L10.48 16.16ZM16.61 17.4L18.89 17.4L18 23.69L19.48 23.69L20.36 17.4L22.63 17.4L22.81 16.16L16.79 16.16L16.61 17.4ZM14.04 19.9L14.48 19.53L14.73 17.76L14.4 17.39L11.78 17.39L11.43 19.9L14.04 19.9ZM7.36 19.9L7.8 19.53L8.05 17.76L7.72 17.39L5.1 17.39L4.75 19.9L7.36 19.9Z" fill="#FFFFFF" fill-opacity="1.000000" fill-rule="evenodd"/>
	<path id="GO" d="M23.26 17.4L22.55 22.45L23.62 23.69L27.38 23.69L28.8 22.45L29.22 19.5L26.16 19.5L25.98 20.74L27.61 20.74L27.45 21.91L26.84 22.44L24.58 22.44L24.1 21.89L24.66 17.96L25.29 17.41L27.52 17.41L27.97 17.91L27.88 18.53L29.36 18.53L29.52 17.38L28.46 16.16L24.68 16.16L23.26 17.4ZM30.6 17.4L29.89 22.45L30.96 23.69L34.88 23.69L36.3 22.45L37.01 17.4L35.93 16.16L32.02 16.16L30.6 17.4ZM34.9 21.89L34.27 22.44L31.92 22.44L31.44 21.89L32 17.96L32.63 17.41L34.98 17.41L35.45 17.96L34.9 21.89Z" fill="#FFFFFF" fill-opacity="1.000000" fill-rule="evenodd"/>
	<path id="博思AIPPT" d="M61.41 22.34L61.41 22.93L63.39 22.93L63.39 24.51L61.41 24.51L61.41 25.93C61.41 27.49 60.91 27.91 59.07 27.91L57.18 27.91L56.86 26.28L58.7 26.28C59.52 26.28 59.66 26.09 59.66 25.39L59.66 24.51L54.48 24.51C55.1 24.99 55.91 25.56 56.44 26.02L55.4 27.26C54.66 26.63 53.84 26 53.02 25.41L53.78 24.51L51.58 24.51L51.58 22.93L59.66 22.93L59.66 22.16L60.73 22.16L60.73 21.55L58.42 21.55L58.42 22.32L56.64 22.32L56.63 21.55L54.33 21.55L54.33 22.41L52.6 22.41L52.59 15.81L56.63 15.81L56.63 14.88L52.11 14.88L52.11 13.41L56.62 13.41L56.62 11.95L58.41 11.95L58.41 13.41L60.16 13.41L59.71 12.34L61.37 12.04L61.98 13.41L63.32 13.41L63.32 14.88L58.41 14.88L58.41 15.81L62.47 15.81L62.48 22.34L61.41 22.34ZM50.66 16.16L51.98 16.16L51.99 18.07L50.66 18.07L50.68 28.09L48.88 28.09L48.86 18.07L47.52 18.07L47.52 16.16L48.86 16.16L48.85 12.09L50.66 12.09L50.66 16.16ZM73.28 24.81C72.84 24.08 71.8 22.53 71.33 21.92L72.58 21.08L66.06 21.08L66.05 12.67L79.03 12.67L79.05 21.08L72.95 21.08C73.47 21.74 74.42 23.07 74.87 23.71L73.28 24.81ZM88.55 13.64L93.68 27.03L91.07 27.03L89.72 23.39L84.85 23.39L83.51 27.03L80.9 27.03L86.01 13.64L88.55 13.64ZM94.69 13.64L97.15 13.64L97.17 27.03L94.71 27.03L94.69 13.64ZM99.28 27.03L99.26 13.64L104.46 13.64C107.54 13.64 109.37 15.28 109.37 18.05C109.38 20.82 107.63 22.46 104.63 22.46L101.73 22.46L101.74 27.03L99.28 27.03ZM110.88 27.03L110.86 13.64L116.06 13.64C119.15 13.64 120.97 15.28 120.98 18.05C120.98 20.82 119.24 22.46 116.23 22.46L113.34 22.46L113.35 27.03L110.88 27.03ZM127.81 15.89L127.83 27.03L125.36 27.03L125.35 15.89L121.31 15.89L121.31 13.64L131.83 13.64L131.83 15.89L127.81 15.89ZM68.09 16L71.56 16L71.55 14.46L68.09 14.46L68.09 16ZM73.53 14.46L73.53 16L77 16L77 14.46L73.53 14.46ZM101.72 15.84L101.73 20.26L104.14 20.26C105.87 20.26 106.86 19.47 106.86 18.05C106.85 16.65 105.87 15.84 104.14 15.84L101.72 15.84ZM113.33 15.84L113.34 20.26L115.75 20.26C117.48 20.26 118.46 19.47 118.46 18.05C118.46 16.65 117.47 15.84 115.74 15.84L113.33 15.84ZM87.34 16.87L87.23 16.87L85.68 21.12L88.9 21.12L87.34 16.87ZM54.33 18.08L56.63 18.08L56.63 17.17L54.33 17.17L54.33 18.08ZM58.42 18.08L60.72 18.08L60.72 17.17L58.42 17.17L58.42 18.08ZM71.56 19.29L71.56 17.73L68.09 17.73L68.09 19.29L71.56 19.29ZM77 17.73L73.54 17.73L73.54 19.29L77.01 19.29L77 17.73ZM56.63 19.35L54.33 19.35L54.33 20.31L56.63 20.31L56.63 19.35ZM60.72 19.35L58.42 19.35L58.42 20.31L60.72 20.31L60.72 19.35ZM78.94 26.88C78.32 25.67 77.26 23.79 76.6 22.74L78.26 21.85C78.92 22.87 80.05 24.81 80.68 25.95L78.94 26.88ZM73.98 25.88C74.82 25.88 75.01 25.6 75.07 25C75.1 24.67 75.12 23.78 75.12 23.43L77.05 23.79C77.03 24.18 76.94 25.34 76.89 25.95C76.77 27.35 76.12 27.77 74.32 27.77L70.78 27.77C69.23 27.77 68.55 27.12 68.55 25.77L68.54 21.87L70.53 21.87L70.53 24.97C70.53 25.62 70.8 25.88 71.48 25.88L73.98 25.88ZM67.95 22.53C67.56 23.95 66.96 25.74 66.37 27.07L64.57 26.42C65.15 25.18 65.76 23.57 66.11 22.1L67.95 22.53Z" fill="#FFFFFF" fill-opacity="1.000000" fill-rule="evenodd"/>
</svg>
