<svg width="191" height="30" viewBox="0 0 191 30" fill="none" xmlns="http://www.w3.org/2000/svg">
<path d="M10.1473 0H19.8469C23.2828 0 24.2473 0 25.7262 0.498047C26.5916 0.814938 27.3776 1.31671 28.0293 1.9684C28.681 2.6201 29.1827 3.40604 29.4996 4.27149C30 5.74922 30 6.71484 30 10.1508V19.8492C30 23.2863 30 24.2496 29.5031 25.7297C29.1859 26.5949 28.684 27.3807 28.0323 28.0323C27.3807 28.684 26.5949 29.1859 25.7297 29.5031C24.2508 30 23.2863 30 19.8504 30H10.1473C6.71133 30 5.74687 30 4.26797 29.5031C3.40272 29.1859 2.61696 28.684 1.96531 28.0323C1.31366 27.3807 0.811767 26.5949 0.494528 25.7297C-3.42727e-06 24.2496 0 23.2863 0 19.8492V10.1508C0 6.71484 0 5.75039 0.498047 4.27149C0.814938 3.40604 1.31671 2.6201 1.96841 1.9684C2.6201 1.31671 3.40604 0.814938 4.27149 0.498047C5.74219 0 6.71133 0 10.1473 0Z" fill="url(#paint0_linear_393_1681)"/>
<path d="M23.4976 8.72949C23.3564 7.35457 23.3471 7.26402 21.9835 6.83125C21.8943 6.80233 21.8464 6.7379 21.8552 6.65342C21.8643 6.56698 21.9262 6.51569 22.0177 6.50513C23.4407 6.35382 23.4682 6.26875 23.8906 4.96531L23.8923 4.9601C23.9003 4.93559 23.9084 4.91065 23.9166 4.88527C23.9455 4.78893 23.996 4.73847 24.078 4.7468C24.1712 4.75626 24.2081 4.81759 24.2167 4.91575L24.222 4.96888C24.3597 6.35797 24.3683 6.44389 25.7306 6.88228C25.8218 6.91139 25.868 6.97366 25.8589 7.0601C25.8489 7.15637 25.7899 7.19803 25.6965 7.2084C24.2737 7.35776 24.2459 7.44582 23.8231 8.78458L23.8059 8.83903C23.7782 8.92358 23.7275 8.97601 23.6361 8.96673C23.5541 8.9584 23.5156 8.89492 23.5058 8.80855C23.503 8.78173 23.5003 8.75538 23.4976 8.72949Z" fill="white"/>
<path d="M23.0174 4.963C22.9849 4.6467 22.9828 4.62587 22.6691 4.52631C22.6486 4.51966 22.6376 4.50483 22.6396 4.4854C22.6417 4.46551 22.6559 4.45371 22.677 4.45128C23.0043 4.41648 23.0107 4.39691 23.1079 4.09705L23.1082 4.09585C23.1101 4.09021 23.1119 4.08447 23.1138 4.07863C23.1205 4.05647 23.1321 4.04486 23.151 4.04678C23.1724 4.04896 23.1809 4.06307 23.1829 4.08565L23.1841 4.09787C23.2158 4.41743 23.2177 4.4372 23.5311 4.53805C23.5521 4.54474 23.5627 4.55907 23.5607 4.57896C23.5583 4.6011 23.5448 4.61069 23.5233 4.61307C23.196 4.64743 23.1896 4.66769 23.0923 4.97567L23.0883 4.9882C23.082 5.00765 23.0703 5.01971 23.0493 5.01758C23.0304 5.01566 23.0216 5.00106 23.0193 4.98119C23.0187 4.97502 23.0181 4.96896 23.0174 4.963Z" fill="white"/>
<path d="M21.9861 6.0742C21.9405 5.63044 21.9375 5.60122 21.4974 5.46154C21.4686 5.4522 21.4532 5.43141 21.456 5.40414C21.459 5.37624 21.4789 5.35969 21.5085 5.35628C21.9677 5.30745 21.9766 5.27999 22.113 4.8593L22.1135 4.85762C22.1161 4.84971 22.1187 4.84166 22.1213 4.83347C22.1307 4.80237 22.147 4.78608 22.1734 4.78877C22.2035 4.79183 22.2154 4.81162 22.2182 4.8433L22.2199 4.86045C22.2644 5.30878 22.2671 5.33652 22.7068 5.47801C22.7362 5.4874 22.7512 5.5075 22.7482 5.5354C22.745 5.56647 22.7259 5.57992 22.6958 5.58326C22.2366 5.63147 22.2276 5.65989 22.0912 6.09198L22.0856 6.10955C22.0767 6.13684 22.0603 6.15376 22.0308 6.15077C22.0044 6.14808 21.9919 6.12759 21.9887 6.09971C21.9879 6.09106 21.987 6.08256 21.9861 6.0742Z" fill="white"/>
<path fill-rule="evenodd" clip-rule="evenodd" d="M7.69109 10.3592C8.43545 8.76754 10.0511 7.66487 11.9242 7.66487C13.8123 7.66487 15.4386 8.78514 16.1749 10.3972C16.2862 10.1678 16.4339 9.95931 16.6106 9.77936C15.7049 8.12227 13.9458 6.99832 11.9242 6.99832C9.91224 6.99832 8.16029 8.11161 7.25078 9.75578C7.42794 9.93115 7.57714 10.1347 7.69109 10.3592ZM5.34497 9.0957C6.54111 6.67125 9.0379 5.00346 11.9242 5.00346C14.8089 5.00346 17.3046 6.66941 18.5015 9.09169C18.8021 9.12061 19.0861 9.20661 19.3425 9.3387C18.1566 6.40598 15.282 4.33691 11.9242 4.33691C8.55706 4.33691 5.67585 6.41752 4.49609 9.36324C4.75358 9.22312 5.04039 9.13009 5.34497 9.0957ZM16.5901 13.3353L16.5907 13.3307V13.335L16.5901 13.3353Z" fill="white"/>
<path fill-rule="evenodd" clip-rule="evenodd" d="M5.59283 9.78711C4.67252 9.78711 3.92646 10.5332 3.92646 11.4535L3.92139 24.3334C3.92139 25.2537 4.66745 25.9997 5.58776 25.9997C6.50807 25.9997 7.25413 25.2537 7.25413 24.3334L7.25921 17.9613C7.39763 17.9986 7.54318 18.0184 7.69337 18.0184L16.2576 18.0184C16.372 18.0184 16.4836 18.0069 16.5915 17.985L16.5865 24.3334C16.5865 25.2537 17.3325 25.9997 18.2528 25.9997C19.1731 25.9997 19.9192 25.2537 19.9192 24.3334L19.9243 11.4535C19.9243 10.5332 19.1782 9.78711 18.2579 9.78711C17.3376 9.78711 16.5915 10.5332 16.5915 11.4535V14.7192C16.4836 14.6972 16.372 14.6857 16.2576 14.6857L7.69337 14.6857C7.54318 14.6857 7.39763 14.7056 7.25921 14.7428V11.4535C7.25921 10.5332 6.51315 9.78711 5.59283 9.78711ZM23.612 10.082C22.6917 10.082 21.9456 10.828 21.9456 11.7483V24.3321C21.9456 25.2524 22.6917 25.9984 23.612 25.9984C24.5323 25.9984 25.2783 25.2524 25.2783 24.3321V11.7483C25.2783 10.828 24.5323 10.082 23.612 10.082Z" fill="white"/>
<path d="M78.5726 13.7863V19.8361C79.2448 18.9398 80.5892 19.3133 80.888 20.2842C79.6183 21.4046 78.2739 22.4502 76.8548 23.3465L76.4067 22.3755C76.2573 21.9274 76.2573 21.4792 76.4067 21.0311C76.4813 20.8817 76.556 20.6577 76.556 20.4336V13.7116H74.0913C74.0913 12.666 74.9129 11.7697 76.0332 11.7697H76.6307C77.6764 11.8444 78.5726 12.666 78.5726 13.7863ZM78.4232 10.5C77.6764 9.60377 76.6307 8.63282 75.2863 7.66187L75.4357 7.51249C76.1826 6.84029 77.3029 6.76561 78.0498 7.4378C78.1245 7.51249 78.2739 7.58718 78.3486 7.66187C79.1701 8.48344 79.2448 9.75315 78.4232 10.5ZM90.3734 15.9523C89.8506 17.5954 88.9543 19.0145 87.7593 20.2095C88.9543 20.9564 90.3734 21.6286 92.0912 22.2261L91.9419 22.5249C91.419 23.3465 90.3734 23.6452 89.4771 23.2718C88.2821 22.6743 87.2365 22.0767 86.3402 21.4046C85.2199 22.2261 83.8755 22.8983 82.307 23.4211C81.4855 23.7199 80.5145 23.4211 79.9917 22.6743L79.6929 22.2261C81.6348 21.6286 83.3527 20.9564 84.6971 20.0602C83.5021 18.8651 82.6058 17.5207 82.1577 16.027H81.0373C81.0373 14.9813 81.8589 14.0851 82.9792 14.0851H88.5809C89.5518 14.1598 90.3734 14.9067 90.3734 15.9523ZM87.3112 6.69092C88.3568 6.69092 89.2531 7.58718 89.2531 8.63282V10.6494C89.2531 11.0975 89.4771 11.3216 89.9253 11.3216H91.195C91.419 11.3216 91.5684 11.471 91.5684 11.695V13.1888H89.4024C87.9834 13.1888 87.2365 12.5166 87.2365 11.1722V8.55813H84.2489V9.08095C84.2489 11.0975 83.2033 12.5913 81.1867 13.7116L80.1411 12.5166C79.9917 12.3672 80.0664 12.0685 80.2905 11.9938C81.6348 11.3216 82.307 10.4253 82.307 9.30502V8.63282C82.307 7.58718 83.2033 6.69092 84.2489 6.69092H87.3112ZM86.1162 19.0145C87.0871 18.1183 87.834 17.1473 88.3568 16.027H83.9502C84.3983 17.1473 85.0705 18.1183 86.1162 19.0145Z" fill="white"/>
<path d="M97.8422 13.7115V19.7612C97.9169 19.6865 97.9915 19.6119 98.0662 19.5372C98.8131 18.9397 99.9334 19.2384 100.158 20.2094C98.8878 21.3297 97.6181 22.3753 96.199 23.3463L95.8256 22.3753C95.6762 21.9272 95.6762 21.4791 95.9003 21.0309C95.975 20.8816 96.0496 20.6575 96.0496 20.5081V13.7115H93.4355C93.4355 12.6658 94.2571 11.7696 95.3775 11.7696H96.1243C97.0206 11.7696 97.8422 12.6658 97.8422 13.7115ZM97.6928 10.4252C96.9459 9.52891 95.9003 8.63265 94.5559 7.58701L94.7052 7.43764C95.4521 6.76544 96.5725 6.69075 97.3193 7.36295C97.394 7.43764 97.5434 7.51232 97.6181 7.58701C98.4397 8.40859 98.5144 9.67829 97.6928 10.4252ZM104.265 11.6202V6.392C104.265 6.16793 104.415 6.01855 104.639 6.01855H105.983C106.207 6.01855 106.357 6.16793 106.357 6.392V11.6202H109.12C110.166 11.6202 111.062 12.5165 111.062 13.5621V13.6368H106.357V23.9438H104.265V13.6368H99.3359V13.5621C99.3359 12.5165 100.232 11.6202 101.278 11.6202H104.265Z" fill="white"/>
<path d="M51.0124 13.9355H46.2323V9.08075C49.5186 8.70731 52.3568 8.33387 52.3568 8.33387C52.7302 7.06416 51.6099 5.94384 50.3402 6.1679C48.9211 6.46666 47.1286 6.76541 45.6348 7.06416C43.917 7.36292 41.6763 7.51229 40.1079 7.51229C38.9129 7.51229 37.8672 8.48324 37.7178 9.67826C39.1369 9.75295 41.527 9.60357 43.917 9.37951V13.9355H38.3153C37.0456 13.9355 36 14.9811 36 16.2508H43.917V24.0185H46.2323V16.2508H53.3277C53.3277 14.9811 52.2821 13.9355 51.0124 13.9355Z" fill="white"/>
<path d="M67.7426 14.9069L65.0538 13.6372L67.7426 12.3675C67.7426 11.4712 67.0704 10.799 66.1741 10.799H61.6181L62.365 10.0521C61.7675 9.45463 60.7219 9.45463 60.1244 10.0521L58.78 11.3965C58.1825 11.994 58.1825 13.0397 58.78 13.6372L60.0497 12.3675H64.0082L58.5559 14.8322C57.7343 15.2056 57.4356 16.1019 57.7343 16.9235L63.1866 14.4588L68.6388 16.9235C68.8629 16.1766 68.5642 15.2803 67.7426 14.9069Z" fill="white"/>
<path d="M65.5765 16.998H60.5724C59.6761 16.998 59.0039 17.6702 59.0039 18.5665H67.145C67.145 17.6702 66.4728 16.998 65.5765 16.998Z" fill="white"/>
<path d="M60.6471 19.4624C59.7508 19.4624 59.0786 20.1346 59.0786 21.0309H67.145C67.145 20.1346 66.4728 19.4624 65.5765 19.4624H60.6471Z" fill="white"/>
<path d="M69.3113 6.09326H56.913C55.6433 6.09326 54.5977 7.1389 54.5977 8.4086V21.6285C54.5977 22.8982 55.6433 23.9438 56.913 23.9438H67.1453C67.1453 22.8982 66.3237 22.0766 65.2781 22.0766H56.9877V7.96047H69.3113V24.0185C70.581 24.0185 71.6266 22.9729 71.6266 21.7032V8.4086C71.6266 7.1389 70.581 6.09326 69.3113 6.09326Z" fill="white"/>
<path d="M113.246 11.3616H111.478V8.84604C111.478 8.29376 111.926 7.84604 112.478 7.84604H119.072C118.904 7.40579 118.69 6.94611 118.432 6.46702L120.199 5.98145C120.639 6.73246 120.944 7.35399 121.112 7.84604H127.162C127.715 7.84604 128.162 8.29376 128.162 8.84604V11.3616H126.317V9.47756H113.246V11.3616ZM119.286 12.5075C118.289 13.4657 117.35 14.2685 116.47 14.916L123.112 14.4498C122.944 14.2944 122.717 14.1002 122.433 13.8671L121.792 13.3233L123.035 12.5075H119.286ZM125.501 16.9359C125.268 16.6252 124.906 16.2108 124.414 15.6929C117.771 16.2497 114.249 16.6058 113.848 16.7611C113.705 16.1526 113.537 15.6152 113.343 15.149C113.679 15.0972 114.12 14.8642 114.663 14.4498C115.259 14.0614 116.03 13.4139 116.975 12.5075H113.518V12.5075C113.518 11.6494 114.213 10.9537 115.071 10.9537H124.666C125.524 10.9537 126.22 11.6494 126.22 12.5075V12.5075H123.19C124.899 13.8412 126.136 14.9937 126.9 15.9648L125.501 16.9359ZM126.783 21.8888C127.663 21.8888 128.376 22.6018 128.376 23.4814V23.4814H111.323V23.4814C111.323 22.6018 112.036 21.8888 112.915 21.8888H118.859V19.694H113.032V19.694C113.032 18.8358 113.728 18.1402 114.586 18.1402H118.859V16.3533H120.704V18.1402H125.191C126.049 18.1402 126.745 18.8358 126.745 19.694V19.694H120.704V21.8888H126.783Z" fill="white"/>
<rect x="132.376" y="7.5" width="1" height="15" fill="white"/>
<path d="M189.835 6.90386C189.847 6.90386 189.86 6.9101 189.872 6.92258C189.885 6.92258 189.891 6.93506 189.891 6.96002V11.902C189.891 11.927 189.885 11.9457 189.872 11.9582C189.86 11.9582 189.847 11.9582 189.835 11.9582H186.428C186.403 11.9582 186.39 11.9395 186.39 11.902V10.5168C186.39 10.4793 186.403 10.4606 186.428 10.4606H188.356V8.40144H181.935V23.4895C181.935 23.527 181.916 23.5457 181.879 23.5457H180.456C180.419 23.5457 180.4 23.527 180.4 23.4895V6.96002C180.4 6.93506 180.406 6.92258 180.419 6.92258C180.431 6.9101 180.444 6.90386 180.456 6.90386H189.835ZM190.134 13.1188C190.147 13.1188 190.159 13.1251 190.172 13.1375C190.184 13.1375 190.19 13.15 190.19 13.175C190.128 14.7724 189.797 16.245 189.198 17.5928C188.599 18.9282 187.782 20.1075 186.746 21.1309C185.71 22.1542 184.506 22.9966 183.133 23.658C183.108 23.6705 183.083 23.658 183.058 23.6206L182.459 22.3851C182.447 22.3476 182.453 22.3227 182.478 22.3102C184.15 21.499 185.51 20.4445 186.559 19.1466C187.607 17.8487 188.275 16.3324 188.562 14.5977H181.242C181.205 14.5977 181.186 14.579 181.186 14.5415V13.175C181.186 13.1375 181.205 13.1188 181.242 13.1188H190.134ZM184.35 15.3277C184.387 15.3153 184.412 15.3215 184.425 15.3465C185.011 17.0437 185.804 18.4415 186.802 19.5397C187.813 20.6254 189.08 21.5739 190.602 22.3851C190.627 22.3976 190.64 22.4038 190.64 22.4038C190.652 22.4163 190.652 22.435 190.64 22.46L190.003 23.658C189.991 23.6955 189.966 23.7079 189.928 23.6955C188.256 22.8219 186.846 21.7611 185.698 20.5131C184.549 19.2526 183.663 17.6927 183.039 15.8332C183.027 15.8082 183.039 15.7895 183.077 15.777L184.35 15.3277ZM179.464 9.61822C179.501 9.61822 179.52 9.63694 179.52 9.67438V11.0784C179.52 11.1158 179.501 11.1345 179.464 11.1345H173.923C173.885 11.1345 173.867 11.1158 173.867 11.0784V9.67438C173.867 9.63694 173.885 9.61822 173.923 9.61822H179.464ZM179.464 15.1031C179.501 15.1031 179.52 15.1218 179.52 15.1593V16.5632C179.52 16.6007 179.501 16.6194 179.464 16.6194H173.923C173.885 16.6194 173.867 16.6007 173.867 16.5632V15.1593C173.867 15.1218 173.885 15.1031 173.923 15.1031H179.464ZM177.536 6.45459C177.573 6.45459 177.592 6.47331 177.592 6.51075V23.2462C177.592 23.2587 177.586 23.2649 177.573 23.2649C177.573 23.2774 177.561 23.2836 177.536 23.2836H174.41C174.385 23.2836 174.372 23.2711 174.372 23.2462V21.7861C174.372 21.7486 174.385 21.7299 174.41 21.7299H176.076V6.51075C176.076 6.47331 176.094 6.45459 176.132 6.45459H177.536Z" fill="white"/>
<path d="M160.894 10.8347C160.894 10.8222 160.9 10.8097 160.913 10.7972C160.925 10.7847 160.938 10.7785 160.95 10.7785H171.003C171.015 10.7785 171.028 10.7847 171.04 10.7972C171.053 10.8097 171.059 10.8222 171.059 10.8347V23.0212C171.059 23.0337 171.053 23.0462 171.04 23.0586C171.028 23.0711 171.015 23.0774 171.003 23.0774H159.939C159.902 23.0774 159.883 23.0586 159.883 23.0212L160.894 10.8347ZM169.524 12.2386H162.317L161.531 21.6172H169.524V12.2386ZM158.049 16.1136C158.074 16.1136 158.086 16.1323 158.086 16.1698C157.837 17.3928 157.556 18.5909 157.244 19.764C156.932 20.9246 156.589 22.0603 156.214 23.171C156.189 23.2084 156.164 23.2209 156.139 23.2084L154.81 22.7591C154.773 22.7342 154.76 22.7092 154.773 22.6842C155.522 20.4628 156.121 18.1978 156.57 15.889C156.595 15.8515 156.62 15.8328 156.645 15.8328L158.049 16.1136ZM156.383 11.0967C156.42 11.0843 156.445 11.0967 156.458 11.1342L157.974 14.485C157.999 14.5224 157.993 14.5474 157.955 14.5599L156.663 15.1215C156.638 15.134 156.614 15.1277 156.589 15.1028L155.072 11.7332C155.047 11.6958 155.054 11.6708 155.091 11.6583L156.383 11.0967ZM165.686 18.1915C165.711 18.179 165.736 18.1915 165.761 18.229L166.884 20.5315C166.909 20.5689 166.903 20.5939 166.866 20.6064L165.593 21.2428C165.568 21.2553 165.543 21.2428 165.518 21.2054L164.395 18.9029C164.37 18.8654 164.376 18.8405 164.413 18.828L165.686 18.1915ZM156.383 6.30448C156.42 6.292 156.445 6.30448 156.458 6.34192L157.974 9.69276C157.999 9.7302 157.993 9.75516 157.955 9.76764L156.663 10.3292C156.638 10.3417 156.614 10.3355 156.589 10.3105L155.072 6.94096C155.047 6.90352 155.054 6.87856 155.091 6.86608L156.383 6.30448ZM172.313 16.1323C172.351 16.1323 172.369 16.1511 172.369 16.1885V17.5363C172.369 17.5613 172.351 17.5738 172.313 17.5738H159.172C159.134 17.5738 159.116 17.5613 159.116 17.5363V16.1885C159.116 16.1511 159.134 16.1323 159.172 16.1323H172.313ZM165.761 12.7628C165.799 12.7503 165.824 12.7566 165.836 12.7815L166.997 15.0466C167.009 15.084 166.997 15.1152 166.959 15.1402L165.724 15.7767C165.686 15.7891 165.661 15.7829 165.649 15.7579L164.488 13.4929C164.476 13.4554 164.488 13.4242 164.526 13.3993L165.761 12.7628ZM161.624 6.45424C161.649 6.45424 161.662 6.47296 161.662 6.5104V7.67102H171.621C171.658 7.67102 171.677 7.68974 171.677 7.72718V9.07501C171.677 9.09996 171.658 9.11244 171.621 9.11244H160.183C160.158 9.11244 160.139 9.11244 160.127 9.11244C160.127 9.09996 160.127 9.08748 160.127 9.07501V6.5104C160.127 6.47296 160.145 6.45424 160.183 6.45424H161.624Z" fill="white"/>
<path d="M152.75 21.5048C152.75 21.5173 152.744 21.5297 152.731 21.5422C152.731 21.5422 152.725 21.5422 152.713 21.5422H151.103C151.09 21.5422 151.078 21.5422 151.065 21.5422C151.065 21.5297 151.065 21.5173 151.065 21.5048V7.70834C151.065 7.69586 151.065 7.68962 151.065 7.68962C151.078 7.67714 151.09 7.6709 151.103 7.6709H152.713C152.725 7.6709 152.731 7.67714 152.731 7.68962C152.744 7.68962 152.75 7.69586 152.75 7.70834V21.5048Z" fill="white"/>
<path d="M149.506 21.5048C149.519 21.5173 149.519 21.5297 149.506 21.5422C149.506 21.5422 149.5 21.5422 149.488 21.5422H147.765C147.753 21.5422 147.74 21.5422 147.728 21.5422C147.716 21.5297 147.709 21.5173 147.709 21.5048L143.085 9.2808H143.816L139.192 21.5048C139.192 21.5173 139.186 21.5297 139.173 21.5422C139.173 21.5422 139.161 21.5422 139.136 21.5422H137.413C137.401 21.5422 137.388 21.5422 137.376 21.5422C137.376 21.5297 137.382 21.5173 137.395 21.5048L142.599 7.70834C142.599 7.68338 142.618 7.6709 142.655 7.6709H144.246C144.284 7.6709 144.302 7.68338 144.302 7.70834L149.506 21.5048ZM146.717 15.7953V17.4239H140.184V15.7953H146.717Z" fill="white"/>
<defs>
<linearGradient id="paint0_linear_393_1681" x1="0.5" y1="3.5" x2="28.5" y2="28" gradientUnits="userSpaceOnUse">
<stop stop-color="#3489FF"/>
<stop offset="0.510417" stop-color="#33BBFF"/>
<stop offset="1" stop-color="#75F0B3"/>
</linearGradient>
</defs>
</svg>
