<svg xmlns="http://www.w3.org/2000/svg" width="32" height="32">
  <path fill="#141414" d="M15.99 31.994c8.827 0 15.984-7.157 15.984-15.985C31.974 7.18 24.817.023 15.99.023S.004 7.18.004 16.01c0 8.828 7.157 15.985 15.985 15.985Z"/>
  <path fill="#BFFB4F" d="M20.301 9.67a2.871 2.871 0 0 1-2.872 2.868h-2.872l2.026 2.024h2.873c.736 0 1.472.276 2.026.837a2.862 2.862 0 0 1 0 4.055l-4.891 4.892a2.871 2.871 0 0 1-4.899-2.031 2.871 2.871 0 0 1 2.872-2.868h2.872l-2.04-2.017h-2.873a2.836 2.836 0 0 1-2.027-.837 2.862 2.862 0 0 1 0-4.055l4.9-4.893a2.871 2.871 0 0 1 4.906 2.024Z"/>
</svg>
