<svg width="26" height="26" viewBox="0 0 26 26" fill="none" xmlns="http://www.w3.org/2000/svg">
<path fill-rule="evenodd" clip-rule="evenodd" d="M4.9479 11.5424C4.43224 11.8719 4.12019 12.4416 4.12019 13.0535V15.7708C4.12019 16.8169 5.26217 17.4625 6.1585 16.923L8.48687 15.5217C9.02577 15.1973 9.35533 14.6143 9.35533 13.9854V13.0666L11.8425 14.59C12.5616 15.0304 12.9999 15.813 12.9999 16.6561V24.3794C12.9999 25.3119 11.9904 25.8948 11.1828 25.4285L3.78098 21.1551C2.78144 20.578 2.16571 19.5115 2.16571 18.3574V10.8257C2.16571 9.87906 3.20269 9.29817 4.00991 9.79259L5.88714 10.9424L4.9479 11.5424Z" fill="#2289F0"/>
<path d="M16.4594 5.44148L12.9125 7.61395C12.4522 7.89588 12.1716 8.39684 12.1716 8.93661L12.1716 12.8459C12.1716 13.4676 12.8446 13.8562 13.383 13.5453L16.9134 11.5071C17.3933 11.23 17.6889 10.718 17.6889 10.1638L17.6889 6.13019C17.6889 5.49912 16.9976 5.11187 16.4594 5.44148Z" fill="#4FE5EB"/>
<path d="M7.75058 10.6975L5.4074 12.1848C5.10332 12.3778 4.91794 12.7207 4.91794 13.0902L4.91794 15.7665C4.91794 16.1921 5.36255 16.4581 5.71824 16.2453L8.05046 14.8499C8.36749 14.6603 8.56279 14.3097 8.56279 13.9304L8.56279 11.169C8.56279 10.737 8.10609 10.4719 7.75058 10.6975Z" fill="#4FE5EB"/>
<path fill-rule="evenodd" clip-rule="evenodd" d="M22.1913 9.69273L22.1913 13.0002C22.1913 13.5523 21.8941 14.0624 21.4117 14.3384L17.8627 16.3691C17.3214 16.6787 16.6448 16.2916 16.6448 15.6722V13.0665L14.1574 14.59C13.4383 15.0304 13 15.813 13 16.6562V24.3794C13 25.3119 14.0095 25.8948 14.8171 25.4285L22.2189 21.1551C23.2185 20.578 23.8342 19.5115 23.8342 18.3574V10.8257C23.8342 9.95622 22.9594 9.3953 22.1913 9.69273Z" fill="#4FE5EB"/>
<path d="M20.5162 8.80072L17.9692 10.3706C17.6387 10.5743 17.4372 10.9363 17.4372 11.3264L17.4372 14.6267C17.4372 15.076 17.9205 15.3568 18.3071 15.1321L20.8421 13.6593C21.1867 13.459 21.399 13.089 21.399 12.6886L21.399 9.2984C21.399 8.84237 20.9026 8.56253 20.5162 8.80072Z" fill="#2289F0"/>
<path d="M19.5413 1.03838L17.6999 2.16623C17.393 2.35418 17.2059 2.68815 17.2059 3.048L17.2059 5.06654C17.2059 5.53282 17.7107 5.82425 18.1145 5.59111L19.9464 4.53349C20.2663 4.34878 20.4634 4.00742 20.4634 3.63799V1.55492C20.4634 1.08162 19.9449 0.791174 19.5413 1.03838Z" fill="#2289F0"/>
<path d="M11.5005 3.90134L8.54605 5.7191C8.16264 5.95499 7.92889 6.37415 7.92889 6.8258L7.92889 10.0968C7.92889 10.617 8.48949 10.9421 8.93798 10.682L11.8786 8.97654C12.2783 8.74471 12.5246 8.31628 12.5246 7.85262L12.5246 4.47761C12.5246 3.94958 11.9487 3.62555 11.5005 3.90134Z" fill="#2289F0"/>
</svg>
