<svg width="48" height="48" viewBox="0 0 48 48" fill="none" xmlns="http://www.w3.org/2000/svg">
<rect y="4" width="40" height="40" rx="20" fill="black"/>
<path d="M45.6778 11.2461C42.6315 15.861 38.6107 19.776 33.9085 22.698C31.6621 24.1085 29.0042 24.9241 26.1559 24.9241C23.0366 24.9241 20.1458 23.9459 17.7734 22.2794C25.8403 16.49 35.3588 12.5952 45.6778 11.2461Z" fill="black"/>
<path d="M22.4727 18.0234C26.5626 13.4089 29.5528 7.79741 31.0325 1.59961C31.3169 3.47913 31.4643 5.40357 31.4643 7.36246C31.4643 9.65313 31.2627 11.8967 30.8762 14.0764C27.9632 15.1845 25.1556 16.5066 22.4727 18.0234Z" fill="black"/>
<ellipse cx="12.1635" cy="16.8744" rx="0.7416" ry="0.741601" fill="black"/>
<path fill-rule="evenodd" clip-rule="evenodd" d="M9.12473 17.3765L9.12614 17.3772L9.125 17.3766L9.12623 17.3762C9.28965 15.6507 10.7426 14.3008 12.5109 14.3008C12.9185 14.3008 13.3093 14.3725 13.6715 14.504C14.6293 14.8178 15.5602 15.1912 16.4597 15.6199C18.2025 16.4506 19.8275 17.4887 21.3025 18.7023C19.5699 19.7326 17.8919 20.8453 16.274 22.0348C18.8742 24.4274 22.3451 25.8884 26.1572 25.8884C26.4943 25.8884 26.8288 25.877 27.1602 25.8545C27.1602 25.8545 27.1602 25.8545 27.1602 25.8545C29.0362 25.7272 30.8151 25.2456 32.4302 24.4759C31.3549 26.3074 30.1312 28.0413 28.7758 29.6612C28.7758 29.6612 28.7758 29.6612 28.7758 29.6612C25.1005 34.0537 20.4563 37.6076 15.1718 39.9942C14.4169 40.3352 13.6489 40.6523 12.8688 40.9446C12.9113 40.9032 12.9536 40.8615 12.9957 40.8196C13.2901 40.5259 13.572 40.2197 13.8406 39.9019C15.9894 37.3595 17.2847 34.0725 17.2847 30.483C17.2847 28.0733 16.7009 25.8 15.6671 23.7967C14.1284 21.0417 11.1838 19.1788 7.80412 19.1788C6.59963 19.1788 5.45041 19.4154 4.40039 19.8446C5.79366 18.752 7.39057 17.9071 9.12473 17.3765ZM13.3633 16.8748C13.3633 17.5375 12.826 18.0748 12.1633 18.0748C11.5005 18.0748 10.9633 17.5375 10.9633 16.8748C10.9633 16.2121 11.5005 15.6748 12.1633 15.6748C12.826 15.6748 13.3633 16.2121 13.3633 16.8748Z" fill="black"/>
<circle cx="20" cy="24" r="20" fill="black"/>
<mask id="mask0_15795_22144" style="mask-type:alpha" maskUnits="userSpaceOnUse" x="0" y="4" width="40" height="40">
<circle cx="20" cy="24" r="20" fill="#232323"/>
</mask>
<g mask="url(#mask0_15795_22144)">
<path d="M45.6778 11.2461C42.6315 15.861 38.6107 19.776 33.9085 22.698C31.6621 24.1085 29.0042 24.9241 26.1559 24.9241C23.0366 24.9241 20.1458 23.9459 17.7734 22.2794C25.8403 16.49 35.3588 12.5952 45.6778 11.2461Z" fill="url(#paint0_linear_15795_22144)"/>
<path d="M22.4727 18.0234C26.5626 13.4089 29.5528 7.79741 31.0325 1.59961C31.3169 3.47913 31.4643 5.40357 31.4643 7.36246C31.4643 9.65313 31.2627 11.8967 30.8762 14.0764C27.9632 15.1845 25.1556 16.5066 22.4727 18.0234Z" fill="url(#paint1_linear_15795_22144)"/>
<path fill-rule="evenodd" clip-rule="evenodd" d="M9.12473 17.3765L9.12614 17.3772L9.125 17.3766L9.12623 17.3762C9.28965 15.6507 10.7426 14.3008 12.5109 14.3008C12.9185 14.3008 13.3093 14.3725 13.6715 14.504C14.6293 14.8178 15.5602 15.1912 16.4597 15.6199C18.2025 16.4506 19.8275 17.4887 21.3025 18.7023C19.5699 19.7326 17.8919 20.8453 16.274 22.0348C18.8742 24.4274 22.3451 25.8884 26.1572 25.8884C26.4943 25.8884 26.8288 25.877 27.1602 25.8545C27.1602 25.8545 27.1602 25.8545 27.1602 25.8545C29.0362 25.7272 30.8151 25.2456 32.4302 24.4759C31.3549 26.3074 30.1312 28.0413 28.7758 29.6612C28.7758 29.6612 28.7758 29.6612 28.7758 29.6612C25.1005 34.0537 20.4563 37.6076 15.1718 39.9942C14.4169 40.3352 13.6489 40.6523 12.8688 40.9446C12.9113 40.9032 12.9536 40.8615 12.9957 40.8196C13.2901 40.5259 13.572 40.2197 13.8406 39.9019C15.9894 37.3595 17.2847 34.0725 17.2847 30.483C17.2847 28.0733 16.7009 25.8 15.6671 23.7967C14.1284 21.0417 11.1838 19.1788 7.80412 19.1788C6.59963 19.1788 5.45041 19.4154 4.40039 19.8446C5.79366 18.752 7.39057 17.9071 9.12473 17.3765ZM13.3633 16.8748C13.3633 17.5375 12.826 18.0748 12.1633 18.0748C11.5005 18.0748 10.9633 17.5375 10.9633 16.8748C10.9633 16.2121 11.5005 15.6748 12.1633 15.6748C12.826 15.6748 13.3633 16.2121 13.3633 16.8748Z" fill="url(#paint2_linear_15795_22144)"/>
</g>
<defs>
<linearGradient id="paint0_linear_15795_22144" x1="17.7734" y1="11.2461" x2="47.2155" y2="16.8605" gradientUnits="userSpaceOnUse">
<stop stop-color="#C4FF80"/>
<stop offset="0.843231" stop-color="#6FFEF5"/>
</linearGradient>
<linearGradient id="paint1_linear_15795_22144" x1="22.4727" y1="1.59961" x2="32.2791" y2="2.10144" gradientUnits="userSpaceOnUse">
<stop stop-color="#C4FF80"/>
<stop offset="0.843231" stop-color="#6FFEF5"/>
</linearGradient>
<linearGradient id="paint2_linear_15795_22144" x1="4.40039" y1="14.3008" x2="34.7567" y2="17.2859" gradientUnits="userSpaceOnUse">
<stop stop-color="#C4FF80"/>
<stop offset="0.843231" stop-color="#6FFEF5"/>
</linearGradient>
</defs>
</svg>
