<svg width="148" height="34" viewBox="0 0 286 64" fill="none" xmlns="http://www.w3.org/2000/svg">
<path d="M183.995 29.6616V49.605C183.995 50.0901 184.377 50.4674 184.869 50.4674H190.142C190.633 50.4674 191.016 50.0901 191.016 49.605V29.6616C191.016 29.1765 190.633 28.7992 190.142 28.7992H184.869C184.377 28.7992 183.995 29.1765 183.995 29.6616Z" fill="#EA4335"/>
<path fill-rule="evenodd" clip-rule="evenodd" d="M207.461 35.105C207.461 35.5901 207.843 35.9674 208.335 35.9674H211.231C211.723 35.9674 212.105 36.3447 212.105 36.8298V42.0313C212.105 42.5164 211.723 42.8937 211.231 42.8937H208.308C207.816 42.8937 207.434 43.271 207.434 43.7561V52.2973C209.145 53.4555 210.274 55.3988 210.274 57.5882C210.274 61.1436 207.348 64 203.775 64C201.999 64 200.383 63.2867 199.206 62.1364H172.302C169.406 62.1364 167.084 59.8187 167.084 56.9889V43.7561C167.084 43.271 166.702 42.8937 166.21 42.8937H163.724C163.232 42.8937 162.85 42.5164 162.85 42.0313V36.8298C162.85 36.3447 163.232 35.9674 163.724 35.9674H166.21C166.702 35.9674 167.084 35.5901 167.084 35.105V22.1148C167.084 19.2581 169.433 16.9673 172.302 16.9673H202.243C205.139 16.9673 207.461 19.285 207.461 22.1148V35.105ZM197.742 55.2101H175.826C174.87 55.2101 174.078 54.4555 174.078 53.4853V25.6184C174.078 24.6751 174.843 23.8936 175.826 23.8936H198.692C199.648 23.8936 200.44 24.6482 200.44 25.6184V52.0919C199.231 52.8106 198.275 53.9061 197.742 55.2101Z" fill="#EA4335"/>
<path fill-rule="evenodd" clip-rule="evenodd" d="M269.935 23.7949C269.389 24.2261 269.525 25.0885 270.208 25.2772L270.154 25.3041C274.852 26.6517 279.934 27.6758 285.206 28.0801C285.671 28.107 286.026 28.5113 285.999 28.9694L285.78 32.4191C285.698 33.8744 284.387 34.9524 282.911 34.8177C274.825 34.0361 267.285 31.934 260.865 29.5354C260.647 29.4276 260.428 29.4545 260.237 29.5354C255.128 31.8531 248.736 33.7666 240.841 34.7368C239.366 34.9255 238.054 33.8744 237.918 32.4191L237.59 28.9694C237.563 28.5113 237.918 28.107 238.382 28.0531C242.507 27.6488 246.141 26.9481 249.364 26.0857C250.129 25.8971 250.238 24.846 249.528 24.4956C246.578 22.9595 244.201 21.558 242.562 20.5339C242.234 20.3183 241.797 20.3722 241.524 20.6687C240.704 21.4772 239.393 21.4233 238.628 20.5609L235.923 17.5154C235.623 17.1651 235.65 16.653 236.005 16.3296C241.961 10.9126 246.414 2.90824 247.698 0.455741C247.916 0.0514831 248.408 -0.11022 248.845 0.0784336L253.599 2.31533C254.036 2.53093 254.227 3.04299 254.008 3.4742L253.926 3.63591C253.626 4.22882 254.036 4.90258 254.691 4.90258H277.338C278.759 4.90258 279.934 6.03451 279.934 7.46289V11.6672L279.661 12.314L279.658 12.3191C279.451 12.7874 277.011 18.2911 269.935 23.7949ZM247.992 13.076C247.735 13.4322 247.475 13.7934 247.206 14.1466L247.179 14.1736C246.878 14.5778 246.987 15.1438 247.425 15.4133C250.184 17.0573 254.5 19.402 259.855 21.6658C260.1 21.7467 260.401 21.7467 260.647 21.6119C265.783 18.7552 268.952 15.575 270.837 13.2034C271.301 12.6374 270.864 11.8289 270.154 11.8289H249.337C249.064 11.8289 248.791 11.9636 248.627 12.2062C248.417 12.4862 248.207 12.7772 247.995 13.0717L247.993 13.0737L247.992 13.076Z" fill="black"/>
<path d="M229.039 16.731L231.934 14.8175C233.164 13.982 233.464 12.3111 232.563 11.1253C229.257 6.75928 225.952 3.76777 224.558 2.58194C224.176 2.25854 223.629 2.31244 223.329 2.68974L221.061 5.51955C220.215 6.57062 220.324 8.0529 221.307 8.96922C222.946 10.5054 225.487 13.0927 227.891 16.4884C228.164 16.8657 228.683 16.9735 229.093 16.704L229.039 16.731Z" fill="black"/>
<path d="M223.604 19.9634L221.173 22.5506C220.216 23.5747 220.244 25.1648 221.254 26.135C223.249 28.0485 226.554 31.3095 229.696 34.867C229.996 35.2174 230.543 35.2713 230.925 34.9479L233.575 32.684C234.695 31.7408 234.777 30.0968 233.821 29.0188C230.024 24.8414 226.308 21.2839 224.861 19.9364C224.505 19.613 223.959 19.613 223.631 19.9634H223.604Z" fill="black"/>
<path d="M222.839 61.795L219.834 60.0701V60.0432C219.425 59.8006 219.288 59.2886 219.534 58.8843C223.632 51.6885 225.681 44.2232 226.527 40.531C226.828 39.2104 228.112 38.348 229.478 38.5636L233.057 39.1295C233.548 39.2104 233.849 39.6416 233.767 40.1267C233.248 42.9026 231.281 51.7693 226.473 60.7708C225.763 62.0645 224.123 62.5226 222.839 61.795Z" fill="black"/>
<path fill-rule="evenodd" clip-rule="evenodd" d="M276.028 36.4314H244.611C241.743 36.4314 239.393 38.7222 239.393 41.579V61.7919H239.53V61.9805H277.803C280.672 61.9805 283.021 59.6898 283.021 56.833V37.2669C283.021 36.7818 282.639 36.4045 282.147 36.4045H276L276.028 36.4314ZM246.414 54.2188V44.1932C246.414 43.7081 246.797 43.3308 247.288 43.3308H275.153C275.645 43.3308 276.028 43.7081 276.028 44.1932V54.2188C276.028 54.7039 275.645 55.0812 275.153 55.0812H247.288C246.797 55.0812 246.414 54.7039 246.414 54.2188Z" fill="black"/>
<path d="M154.104 16.731L157 14.8175C158.257 13.982 158.53 12.3111 157.628 11.1253C154.323 6.75928 151.017 3.76777 149.624 2.58194C149.242 2.25854 148.695 2.31244 148.395 2.68974L146.127 5.51955C145.28 6.57062 145.39 8.0529 146.373 8.96922C148.012 10.5054 150.525 13.0927 152.93 16.4884C153.203 16.8657 153.722 16.9735 154.132 16.704L154.104 16.731Z" fill="black"/>
<path d="M146.266 22.5506L148.697 19.9634H148.724C149.052 19.613 149.599 19.613 149.954 19.9364C151.402 21.2839 155.117 24.8414 158.914 29.0188C159.87 30.0968 159.788 31.7408 158.668 32.684L156.018 34.9479C155.636 35.2713 155.117 35.2174 154.789 34.867C151.647 31.3096 148.342 28.0485 146.348 26.135C145.337 25.1648 145.309 23.5747 146.266 22.5506Z" fill="black"/>
<path d="M144.898 60.0701L147.903 61.795C149.187 62.5226 150.826 62.0645 151.536 60.7708C156.344 51.7693 158.311 42.9026 158.83 40.1267C158.912 39.6416 158.612 39.2104 158.12 39.1295L154.541 38.5636C153.175 38.348 151.891 39.2104 151.591 40.531C150.744 44.2232 148.695 51.6885 144.597 58.8843C144.351 59.2886 144.488 59.8006 144.898 60.0432V60.0701Z" fill="black"/>
<path d="M207.076 11.9337H169.24C168.83 11.9337 168.475 12.2033 168.393 12.5806C168.229 13.2808 168.038 13.9273 167.847 14.5737C167.41 16.056 165.715 16.8118 164.295 16.165L161.235 14.7905C160.825 14.6019 160.607 14.1437 160.771 13.7125C161.727 11.1522 162.492 6.81314 162.929 3.79468C163.12 2.4202 164.404 1.44998 165.797 1.61169L169.349 1.98899C169.841 2.0429 170.168 2.4741 170.114 2.95921C170.091 3.20087 170.051 3.49625 170.007 3.81616L169.977 4.03724C169.922 4.5493 170.332 5.00746 170.851 5.00746H208.797C209.289 5.00746 209.671 5.38476 209.671 5.86987V9.37344C209.671 10.7749 208.524 11.9337 207.076 11.9337Z" fill="black"/>
<path d="M15.5716 2.31047H12.0475C11.5558 2.31047 11.1733 2.68778 11.1733 3.17289V8.69775C11.1733 9.18286 10.7909 9.56017 10.2991 9.56017H2.59527C1.14738 9.56017 0 10.719 0 12.1205V15.624C0 16.1092 0.382461 16.4865 0.874197 16.4865H26.9362C28.3841 16.4865 29.5315 15.3276 29.5315 13.9262V10.4226C29.5315 9.93748 29.149 9.56017 28.6573 9.56017H19.0411C18.5494 9.56017 18.1669 9.18286 18.1669 8.69775V4.87078C18.1669 3.4424 16.9922 2.31047 15.5716 2.31047Z" fill="black"/>
<path d="M26.4991 60.6323H0.874197V60.6592C0.382461 60.6592 0 60.2819 0 59.7968V56.2932C0 54.8648 1.1747 53.7329 2.59527 53.706H5.46878L3.22888 20.5123C3.19691 20.0386 3.57779 19.637 4.05904 19.637H9.42689C9.86494 19.637 10.228 19.9721 10.2571 20.4033L12.5043 53.706H16.4415L18.8728 20.3989C18.9042 19.9695 19.2664 19.637 19.7027 19.637H25.0725C25.5556 19.637 25.9371 20.0415 25.9024 20.5168L23.4796 53.706H28.2202C28.7119 53.706 29.0944 54.0833 29.0944 54.5684V58.072C29.0944 59.4734 27.947 60.6323 26.4991 60.6323Z" fill="black"/>
<path fill-rule="evenodd" clip-rule="evenodd" d="M48.0272 1.42075H44.4758C43.984 1.42075 43.6016 1.79806 43.6016 2.28317V28.8295C43.6016 29.3146 43.2191 29.6919 42.7274 29.6919H36.9358C34.0674 29.6919 31.718 31.9827 31.718 34.8394V61.2779C31.718 61.763 32.1004 62.1403 32.5922 62.1403H59.3644C62.2329 62.1403 64.5823 59.8495 64.5823 56.9928V30.5543C64.5823 30.0692 64.1998 29.6919 63.7081 29.6919H51.4693C50.9776 29.6919 50.5951 29.3146 50.5951 28.8295V17.6989C50.5951 17.2138 50.9776 16.8365 51.4693 16.8365H62.3148C63.7627 16.8365 64.9101 15.6776 64.9101 14.2762V10.7995C64.9101 10.3144 64.5277 9.93713 64.0359 9.93713H51.442C50.9503 9.93713 50.5678 9.55982 50.5678 9.07471V4.008C50.5678 2.57962 49.3931 1.4477 47.9726 1.4477L48.0272 1.42075ZM56.6599 55.214H39.5584C39.0667 55.214 38.6842 54.8367 38.6842 54.3516V37.4536C38.6842 36.9685 39.0667 36.5912 39.5584 36.5912H56.6599C57.1516 36.5912 57.5341 36.9685 57.5341 37.4536V54.3516C57.5341 54.8367 57.1516 55.214 56.6599 55.214Z" fill="black"/>
<path fill-rule="evenodd" clip-rule="evenodd" d="M77.6392 10.4531H72.9404C72.4486 10.4531 72.0662 10.0758 72.0662 9.5907V6.08713C72.0662 4.6857 73.2136 3.52683 74.6615 3.52683H102.417C102.909 3.52683 103.291 3.90414 103.291 4.38925V7.89282C103.291 9.29425 102.144 10.4531 100.696 10.4531H97.4179C96.9262 10.4531 96.5437 10.8304 96.5437 11.3155V16.0588C96.5437 16.5439 96.9262 16.9213 97.4179 16.9213H102.445C102.936 16.9213 103.319 17.2986 103.319 17.7837V61.3627C103.319 61.8478 102.936 62.2251 102.445 62.2251H72.9404C72.4486 62.2251 72.0662 61.8478 72.0662 61.3627V17.7837C72.0662 17.2986 72.4486 16.9213 72.9404 16.9213H77.6392C78.1309 16.9213 78.5134 16.5439 78.5134 16.0588V11.3155C78.5134 10.8304 78.1309 10.4531 77.6392 10.4531ZM81.5184 24.683C81.5184 24.1979 81.136 23.8206 80.6442 23.8206L80.6989 23.8475H80.0159C79.5242 23.8475 79.1417 24.2249 79.1417 24.71V45.7853C79.1417 46.2704 79.5242 46.6477 80.0159 46.6477H95.4509C95.9427 46.6477 96.3251 46.2704 96.3251 45.7853V43.7371C96.3251 43.2519 95.9427 42.8746 95.4509 42.8746H89.7687C89.2769 42.8746 88.8945 42.4973 88.8945 42.0122V24.683C88.8945 24.1979 88.512 23.8206 88.0203 23.8206H87.4193C86.9275 23.8206 86.5451 24.1979 86.5451 24.683V38.0505C86.5724 38.6973 86.5178 41.7427 84.0864 44.9229C83.7586 45.3271 83.1849 45.381 82.8024 45.0576L80.3164 42.9285C79.9886 42.659 79.934 42.147 80.1798 41.7966C81.5184 39.9101 81.5184 38.1852 81.5184 38.1852V24.683ZM79.1144 52.6846V54.4364C79.1144 54.9215 79.4969 55.2988 79.9886 55.2988H95.4236C95.9154 55.2988 96.2978 54.9215 96.2978 54.4364V52.6846C96.2978 52.1995 95.9154 51.8222 95.4236 51.8222H79.9886C79.4969 51.8222 79.1144 52.1995 79.1144 52.6846ZM94.7407 37.9427H95.4236C95.9154 37.9427 96.2978 37.5654 96.2978 37.0803V24.683C96.2978 24.1979 95.9154 23.8206 95.4236 23.8206H94.7407C94.2489 23.8206 93.8665 24.1979 93.8665 24.683V37.0803C93.8665 37.5654 94.2489 37.9427 94.7407 37.9427ZM86.4085 16.9213H88.6759C89.1677 16.9213 89.5501 16.5439 89.5501 16.0588V11.3155C89.5501 10.8304 89.1677 10.4531 88.6759 10.4531H86.4085C85.9167 10.4531 85.5343 10.8304 85.5343 11.3155V16.0588C85.5343 16.5439 85.9167 16.9213 86.4085 16.9213Z" fill="black"/>
<path fill-rule="evenodd" clip-rule="evenodd" d="M111.951 35.3287C111.951 35.3287 106.788 34.4932 106.788 40.4224V61.0665C106.788 61.5516 107.17 61.9289 107.662 61.9289H131.839C134.707 61.9289 137.057 59.6381 137.057 56.7813V36.1911C137.057 35.706 136.674 35.3287 136.183 35.3287H111.951ZM129.189 55.0026H114.683C114.191 55.0026 113.809 54.6253 113.809 54.1402V43.1174C113.809 42.6323 114.191 42.255 114.683 42.255H129.189C129.681 42.255 130.063 42.6323 130.063 43.1174V54.1402C130.063 54.6253 129.681 55.0026 129.189 55.0026Z" fill="black"/>
<path d="M134.408 14.923H126.841L126.759 15.0038C126.268 15.0038 125.885 15.3811 125.885 15.8662V24.3557C125.885 24.8408 126.268 25.2181 126.759 25.2181H136.43C136.922 25.2181 137.304 25.5954 137.304 26.0805V29.5571C137.304 30.9586 136.157 32.1174 134.709 32.1174H107.254C106.762 32.1174 106.38 31.7401 106.38 31.255V27.7514C106.38 26.35 107.527 25.1911 108.975 25.1911H118.017C118.509 25.1911 118.891 24.8138 118.891 24.3287V15.8393C118.891 15.3542 118.509 14.9769 118.017 14.9769H114.165C113.756 14.9769 113.373 15.2733 113.318 15.7045C113.1 17.1868 112.854 18.7769 112.554 20.4748C112.308 21.9032 110.914 22.8195 109.494 22.55L106.052 21.8762C105.587 21.7954 105.287 21.3372 105.369 20.879C107.008 12.3088 107.363 5.94844 107.418 3.76545C107.445 3.28034 107.827 2.92998 108.292 2.92998H111.761C113.237 2.92998 114.439 4.14276 114.357 5.62504C114.329 6.05624 114.302 6.56831 114.275 7.10732C114.247 7.59243 114.657 8.02363 115.149 8.02363H118.072C118.564 8.02363 118.946 7.64633 118.946 7.16122V2.28317C118.946 1.79806 119.329 1.42075 119.82 1.42075H125.093C125.585 1.42075 125.967 1.79806 125.967 2.28317V7.13427C125.967 7.61938 126.349 7.99669 126.841 7.99669H136.13C136.621 7.99669 137.004 8.37399 137.004 8.8591V12.3627C137.004 13.7641 135.856 14.923 134.408 14.923Z" fill="black"/>
</svg>
